<svg xmlns="http://www.w3.org/2000/svg" version="1.1" xmlns:xlink="http://www.w3.org/1999/xlink" xmlns:svgjs="http://svgjs.com/svgjs" width="1440" height="560" preserveAspectRatio="none" viewBox="0 0 1440 560"><g mask="url(&quot;#SvgjsMask1002&quot;)" fill="none"><path d="M765.71 426.65 a4.57 4.57 0 1 0 9.14 0 a4.57 4.57 0 1 0 -9.14 0z" stroke="rgba(11, 108, 188, 1)"></path><path d="M66.71 65.27 a41.05 41.05 0 1 0 82.1 0 a41.05 41.05 0 1 0 -82.1 0z" fill="rgba(73, 214, 239, 1)"></path><path d="M548.82 446.61L577.14 446.61L577.14 476.63L548.82 476.63z" fill="rgba(73, 214, 239, 1)"></path><path d="M1024.61 453.98L1025.94 453.98L1025.94 455.31L1024.61 455.31z" fill="rgba(73, 214, 239, 1)"></path><path d="M26.87 550.3 a29.73 29.73 0 1 0 59.46 0 a29.73 29.73 0 1 0 -59.46 0z" stroke="rgba(73, 214, 239, 1)"></path><path d="M981.02 386.89a15.78 15.78 0 1 0-6.48 30.89z" stroke="rgba(73, 214, 239, 1)"></path><path d="M1075.77 76.66L1103.72 76.66L1103.72 90.26L1075.77 90.26z" stroke="rgba(73, 214, 239, 1)"></path><path d="M433.78 24.97a20.16 20.16 0 1 0 37.14-15.69z" stroke="rgba(73, 214, 239, 1)"></path><path d="M645.91 321.39L698.08 321.39L698.08 333.77L645.91 333.77z" fill="rgba(11, 108, 188, 1)"></path><path d="M577.67 233.75L589.41 233.75L589.41 245.49L577.67 245.49z" stroke="rgba(11, 108, 188, 1)"></path><path d="M904.22 515.69a41.33 41.33 0 1 0 51.17 64.92z" fill="rgba(11, 108, 188, 1)"></path><path d="M433.13 269.4 a53.63 53.63 0 1 0 107.26 0 a53.63 53.63 0 1 0 -107.26 0z" stroke="rgba(73, 214, 239, 1)"></path><path d="M6.22 410.82a42.54 42.54 0 1 0 78.53 32.74z" fill="rgba(73, 214, 239, 1)"></path><path d="M171.63 527.75a13.3 13.3 0 1 0-6.1-25.89z" stroke="rgba(73, 214, 239, 1)"></path><path d="M685.72 490.41L686.54 490.41L686.54 491.23L685.72 491.23z" stroke="rgba(73, 214, 239, 1)"></path><path d="M1364.12 141.77 a54.21 54.21 0 1 0 108.42 0 a54.21 54.21 0 1 0 -108.42 0z" fill="rgba(11, 108, 188, 1)"></path><path d="M655.51 313.97L705.15 313.97L705.15 363.61L655.51 363.61z" fill="rgba(11, 108, 188, 1)"></path><path d="M703.72 457.97 a4.42 4.42 0 1 0 8.84 0 a4.42 4.42 0 1 0 -8.84 0z" fill="rgba(11, 108, 188, 1)"></path><path d="M821.99 277.41L863.52 277.41L863.52 325.55L821.99 325.55z" stroke="rgba(11, 108, 188, 1)"></path><path d="M257.97 268.81L298.27 268.81L298.27 309.11L257.97 309.11z" stroke="rgba(11, 108, 188, 1)"></path><path d="M474.99 275.1L523.11 275.1L523.11 276.16L474.99 276.16z" fill="rgba(73, 214, 239, 1)"></path><path d="M1348.47 168.54L1392.64 168.54L1392.64 212.71L1348.47 212.71z" stroke="rgba(73, 214, 239, 1)"></path><path d="M4.5 317.39L24.13 317.39L24.13 337.02L4.5 337.02z" stroke="rgba(11, 108, 188, 1)"></path><path d="M1.94 398.61L16.58 398.61L16.58 429.54L1.94 429.54z" fill="rgba(73, 214, 239, 1)"></path><path d="M178.93 380.93L214.65 380.93L214.65 416.65L178.93 416.65z" stroke="rgba(73, 214, 239, 1)"></path><path d="M233.24 325.01L237.46 325.01L237.46 329.23L233.24 329.23z" fill="rgba(11, 108, 188, 1)"></path><path d="M1048.2 540.1a7.34 7.34 0 1 0 13.1-6.63z" fill="rgba(11, 108, 188, 1)"></path><path d="M676.27 254.42L695.6 254.42L695.6 273.75L676.27 273.75z" fill="rgba(73, 214, 239, 1)"></path><path d="M1066.45 416.82L1075.5 416.82L1075.5 430.36L1066.45 430.36z" stroke="rgba(73, 214, 239, 1)"></path><path d="M1182.24 45.23 a15.88 15.88 0 1 0 31.76 0 a15.88 15.88 0 1 0 -31.76 0z" fill="rgba(73, 214, 239, 1)"></path><path d="M4.39 268.09a21.73 21.73 0 1 0 36.86 23.04z" stroke="rgba(11, 108, 188, 1)"></path><path d="M711.78 99.71L736.77 99.71L736.77 134.51L711.78 134.51z" stroke="rgba(73, 214, 239, 1)"></path><path d="M1007.28 522.29L1028.77 522.29L1028.77 543.78L1007.28 543.78z" stroke="rgba(11, 108, 188, 1)"></path></g><defs><mask id="SvgjsMask1002"><rect width="1440" height="560" fill="#ffffff"></rect></mask></defs></svg>