<svg xmlns="http://www.w3.org/2000/svg" version="1.1" xmlns:xlink="http://www.w3.org/1999/xlink" xmlns:svgjs="http://svgjs.com/svgjs" width="1440" height="560" preserveAspectRatio="none" viewBox="0 0 1440 560"><g mask="url(&quot;#SvgjsMask1226&quot;)" fill="none"><path d="M569 111L803 345" stroke-width="8" stroke="url(#SvgjsLinearGradient1227)" stroke-linecap="round" class="BottomRight"></path><path d="M710 145L560 -5" stroke-width="8" stroke="url(#SvgjsLinearGradient1227)" stroke-linecap="round" class="BottomRight"></path><path d="M392 458L23 89" stroke-width="10" stroke="url(#SvgjsLinearGradient1228)" stroke-linecap="round" class="TopLeft"></path><path d="M1148 221L1328 401" stroke-width="10" stroke="url(#SvgjsLinearGradient1227)" stroke-linecap="round" class="BottomRight"></path><path d="M1277 38L1500 261" stroke-width="6" stroke="url(#SvgjsLinearGradient1227)" stroke-linecap="round" class="BottomRight"></path><path d="M1331 533L912 114" stroke-width="6" stroke="url(#SvgjsLinearGradient1227)" stroke-linecap="round" class="BottomRight"></path><path d="M1430 414L1809 793" stroke-width="6" stroke="url(#SvgjsLinearGradient1227)" stroke-linecap="round" class="BottomRight"></path><path d="M1129 178L1481 530" stroke-width="10" stroke="url(#SvgjsLinearGradient1227)" stroke-linecap="round" class="BottomRight"></path><path d="M139 75L-17 -81" stroke-width="6" stroke="url(#SvgjsLinearGradient1227)" stroke-linecap="round" class="BottomRight"></path><path d="M713 194L520 1" stroke-width="8" stroke="url(#SvgjsLinearGradient1228)" stroke-linecap="round" class="TopLeft"></path><path d="M173 192L-33 -14" stroke-width="8" stroke="url(#SvgjsLinearGradient1228)" stroke-linecap="round" class="TopLeft"></path><path d="M1138 267L1354 483" stroke-width="10" stroke="url(#SvgjsLinearGradient1228)" stroke-linecap="round" class="TopLeft"></path><path d="M1061 228L1270 437" stroke-width="8" stroke="url(#SvgjsLinearGradient1227)" stroke-linecap="round" class="BottomRight"></path><path d="M477 341L704 568" stroke-width="8" stroke="url(#SvgjsLinearGradient1227)" stroke-linecap="round" class="BottomRight"></path><path d="M1398 209L1644 455" stroke-width="10" stroke="url(#SvgjsLinearGradient1228)" stroke-linecap="round" class="TopLeft"></path><path d="M306 192L105 -9" stroke-width="10" stroke="url(#SvgjsLinearGradient1227)" stroke-linecap="round" class="BottomRight"></path><path d="M1103 284L842 23" stroke-width="8" stroke="url(#SvgjsLinearGradient1227)" stroke-linecap="round" class="BottomRight"></path><path d="M68 450L373 755" stroke-width="8" stroke="url(#SvgjsLinearGradient1227)" stroke-linecap="round" class="BottomRight"></path><path d="M896 368L1218 690" stroke-width="6" stroke="url(#SvgjsLinearGradient1228)" stroke-linecap="round" class="TopLeft"></path><path d="M746 401L966 621" stroke-width="8" stroke="url(#SvgjsLinearGradient1228)" stroke-linecap="round" class="TopLeft"></path><path d="M862 234L1086 458" stroke-width="10" stroke="url(#SvgjsLinearGradient1227)" stroke-linecap="round" class="BottomRight"></path><path d="M973 78L826 -69" stroke-width="8" stroke="url(#SvgjsLinearGradient1227)" stroke-linecap="round" class="BottomRight"></path><path d="M551 368L203 20" stroke-width="6" stroke="url(#SvgjsLinearGradient1227)" stroke-linecap="round" class="BottomRight"></path><path d="M288 537L-80 169" stroke-width="8" stroke="url(#SvgjsLinearGradient1228)" stroke-linecap="round" class="TopLeft"></path><path d="M773 517L976 720" stroke-width="8" stroke="url(#SvgjsLinearGradient1227)" stroke-linecap="round" class="BottomRight"></path><path d="M639 449L346 156" stroke-width="10" stroke="url(#SvgjsLinearGradient1228)" stroke-linecap="round" class="TopLeft"></path><path d="M799 19L1022 242" stroke-width="10" stroke="url(#SvgjsLinearGradient1227)" stroke-linecap="round" class="BottomRight"></path><path d="M259 299L529 569" stroke-width="8" stroke="url(#SvgjsLinearGradient1228)" stroke-linecap="round" class="TopLeft"></path><path d="M79 48L-287 -318" stroke-width="8" stroke="url(#SvgjsLinearGradient1228)" stroke-linecap="round" class="TopLeft"></path><path d="M257 304L460 507" stroke-width="8" stroke="url(#SvgjsLinearGradient1228)" stroke-linecap="round" class="TopLeft"></path><path d="M1434 349L1737 652" stroke-width="8" stroke="url(#SvgjsLinearGradient1227)" stroke-linecap="round" class="BottomRight"></path><path d="M364 321L636 593" stroke-width="10" stroke="url(#SvgjsLinearGradient1227)" stroke-linecap="round" class="BottomRight"></path><path d="M838 131L614 -93" stroke-width="6" stroke="url(#SvgjsLinearGradient1228)" stroke-linecap="round" class="TopLeft"></path><path d="M223 462L535 774" stroke-width="10" stroke="url(#SvgjsLinearGradient1227)" stroke-linecap="round" class="BottomRight"></path><path d="M1225 3L1486 264" stroke-width="6" stroke="url(#SvgjsLinearGradient1227)" stroke-linecap="round" class="BottomRight"></path><path d="M572 99L743 270" stroke-width="8" stroke="url(#SvgjsLinearGradient1227)" stroke-linecap="round" class="BottomRight"></path><path d="M464 9L120 -335" stroke-width="6" stroke="url(#SvgjsLinearGradient1228)" stroke-linecap="round" class="TopLeft"></path><path d="M83 274L404 595" stroke-width="8" stroke="url(#SvgjsLinearGradient1227)" stroke-linecap="round" class="BottomRight"></path><path d="M54 29L265 240" stroke-width="8" stroke="url(#SvgjsLinearGradient1228)" stroke-linecap="round" class="TopLeft"></path></g><defs><mask id="SvgjsMask1226"><rect width="1440" height="560" fill="#ffffff"></rect></mask><linearGradient x1="0%" y1="0%" x2="100%" y2="100%" id="SvgjsLinearGradient1227"><stop stop-color="rgba(76, 220, 244, 0)" offset="0"></stop><stop stop-color="rgba(76, 220, 244, 1)" offset="1"></stop></linearGradient><linearGradient x1="100%" y1="100%" x2="0%" y2="0%" id="SvgjsLinearGradient1228"><stop stop-color="rgba(76, 220, 244, 0)" offset="0"></stop><stop stop-color="rgba(76, 220, 244, 1)" offset="1"></stop></linearGradient></defs></svg>